<?xml version="1.0" standalone="no"?>
<!DOCTYPE svg PUBLIC "-//W3C//DTD SVG 20010904//EN"
 "http://www.w3.org/TR/2001/REC-SVG-20010904/DTD/svg10.dtd">
<svg version="1.0" xmlns="http://www.w3.org/2000/svg"
 width="1474.000000pt" height="810.000000pt" viewBox="0 0 1474.000000 810.000000"
 preserveAspectRatio="xMidYMid meet">

<g transform="translate(0.000000,810.000000) scale(0.100000,-0.100000)"
fill="#000000" stroke="none">
<path d="M6325 6877 c-14 -21 -15 -90 -13 -576 3 -534 4 -553 22 -567 16 -11
77 -14 322 -14 266 0 303 2 308 16 10 27 7 99 -6 112 -9 9 -77 12 -245 12
l-233 0 0 205 0 205 198 0 c141 0 201 3 210 12 7 7 12 29 12 49 0 72 10 69
-216 69 l-204 0 0 180 0 180 232 2 233 3 14 29 c10 21 11 39 5 65 l-9 36 -307
3 -307 2 -16 -23z"/>
<path d="M8213 6803 c-9 -3 -13 -35 -13 -108 l0 -104 -67 -3 -68 -3 0 -60 0
-60 67 -3 66 -3 4 -297 c3 -289 4 -298 27 -345 30 -61 80 -95 158 -107 61 -10
144 -1 183 20 22 12 35 67 26 106 -6 23 -10 25 -39 20 -95 -18 -117 -18 -143
-2 -49 33 -54 63 -54 346 l0 260 110 0 c120 0 130 5 130 65 0 60 -10 65 -130
65 l-110 0 0 98 c0 63 -4 102 -12 110 -12 12 -110 16 -135 5z"/>
<path d="M7543 6596 c-57 -19 -122 -58 -158 -96 l-30 -32 -5 59 c-5 57 -5 58
-40 63 -19 3 -48 3 -65 0 l-30 -5 0 -430 0 -430 37 -9 c23 -6 50 -6 70 0 l33
10 3 296 2 296 69 65 c76 71 122 92 184 84 54 -7 87 -33 117 -93 25 -48 25
-54 30 -348 l5 -299 28 -10 c16 -5 48 -6 73 -2 36 5 45 11 50 31 4 14 4 158 1
322 -5 338 -11 369 -77 445 -22 25 -59 54 -83 65 -56 27 -160 36 -214 18z"/>
<path d="M9027 6600 c-219 -37 -345 -259 -309 -542 28 -213 132 -322 332 -349
117 -16 306 13 359 55 21 17 32 56 25 92 -8 41 -16 42 -112 9 -247 -84 -421
-7 -439 195 l-6 60 277 0 c337 0 322 -7 313 129 -6 108 -34 185 -91 248 -53
59 -116 92 -199 104 -71 10 -83 10 -150 -1z m169 -139 c66 -30 114 -111 114
-193 l0 -28 -216 0 -217 0 7 41 c25 156 175 242 312 180z"/>
<path d="M9997 6596 c-48 -18 -99 -57 -129 -98 l-23 -33 -5 60 c-5 59 -5 60
-40 65 -19 3 -48 3 -65 0 l-30 -5 0 -430 0 -429 33 -10 c20 -6 47 -6 70 0 l37
9 5 280 5 280 32 46 c40 58 105 117 139 125 14 4 50 0 80 -8 66 -19 74 -12 74
64 0 50 -3 60 -24 73 -34 22 -114 28 -159 11z"/>
<path d="M10380 4413 c0 -788 0 -788 -66 -923 -51 -102 -152 -203 -254 -254
-144 -70 33 -66 -2517 -66 l-2303 0 0 197 0 198 -392 -393 -393 -392 393 -392
392 -393 0 198 0 197 2326 0 c2599 0 2432 -4 2659 71 412 137 727 452 864 864
69 208 71 238 71 1064 l0 731 -390 0 -390 0 0 -707z"/>
</g>
</svg>
